<?xml version="1.0" encoding="UTF-8"?>
<svg version="1.1" viewBox="0 0 1080 1080" width="1280" height="1280" xmlns="http://www.w3.org/2000/svg">
<path transform="translate(0)" d="m0 0h1080v1080h-1080z" fill="#FEF9ED"/>
<path transform="translate(507,359)" d="m0 0 78 4 1 5-11 64-9 52-4 4h-2l-2 4-4 4h-2l-2 4-4 4h-2l-1 3-8 7-34 34-4-2-1-3h-2l-7-8-7-7-7-8-14-15-12-13-6-6 1-6 19-37 12-22 17-33 12-22 3-6z" fill="#28B3FE"/>
<path transform="translate(314,349)" d="m0 0h11l167 9 4 2-8 16-7 12-7 14-9 16-7 14-24 44-4-2-6-6v-2h-2l-7-8-7-7-7-8-9-9-7-8-8-8-7-8-10-10-7-8-6-6v-2l-3-1-7-8-8-8-7-8-8-8z" fill="#28B3FE"/>
<path transform="translate(444,504)" d="m0 0 4 1 7 8 14 15 16 17 8 9-1 3-8 7-44 44-8 7-17 17h-2l2-11 12-50 10-40 6-25z" fill="#28B3FE"/>
<path transform="translate(568,312)" d="m0 0h176l-3 2-40 11-32 9-26 7-43 12-5-1-13-18-12-17z" fill="#28B3FE"/>
<path transform="translate(554,312)" d="m0 0 5 5 11 15 12 17 2 4-1 1-64-2-7-1 14-14 8-7 13-12z" fill="#28B3FE"/>
<path transform="translate(388,312)" d="m0 0 10 3 87 32 1 2-26-1-47-3-10-1-10-19-5-11z" fill="#28B3FE"/>
<path transform="translate(525,707)" d="m0 0 17 1 8 4 6 7 2 6v9l-4 10h-2l-2 4-9 4h-17v-44z" fill="#28749D"/>
<path transform="translate(596,712)" d="m0 0h9l6 3 6 7 1 2v12l-4 6-6 5-4 1h-7l-8-4-6-8v-12l4-6 6-5z" fill="#FEF9ED"/>
<path transform="translate(730,706)" d="m0 0h7l5 11 12 33v2h-10l-3-8h-15l-3 8h-10l3-10z" fill="#286F95"/>
<path transform="translate(422,707)" d="m0 0 14 1 5 3 3 3v12l-5 5-4 2 9 13 3 4v2h-6l-7-9-6-9-1 18h-6v-44z" fill="#28749D"/>
<path transform="translate(595,707)" d="m0 0h11l7 3 6 5 4 7 1 4v8l-3 8-5 6-7 4-4 1h-9l-8-3-6-5-4-7-1-5v-7l3-8 5-6zm1 5-6 3-6 7-1 2v12l6 8 8 4h7l7-3 6-7 1-2v-12l-4-6-6-5-3-1z" fill="#287097"/>
<path transform="translate(484,706)" d="m0 0h2l13 30 6 14v2h-6l-5-11-19-1-4 12h-6l1-5 12-27z" fill="#287097"/>
<path transform="translate(326,706)" d="m0 0 3 3 10 23 8 19v1h-6l-4-8-1-3-19-1-3 9-2 3h-6l7-17 11-25z" fill="#287096"/>
<path transform="translate(530,713)" d="m0 0h11l6 4 4 5 1 2v12l-4 6-5 4-3 1h-10z" fill="#FEF9ED"/>
<path transform="translate(367,707)" d="m0 0 5 1v15l1 19 3 4 9 1 5-3 2-5 1-32 5 1v34l-4 7-8 4h-8l-6-3-5-6-1-3v-33z" fill="#287198"/>
<path transform="translate(766,707)" d="m0 0 8 1v44h-9v-44z" fill="#286D92"/>
<path transform="translate(642,707)" d="m0 0h25l1 5-1 1h-10v39h-5l-1-39h-9l-1-5z" fill="#287199"/>
<path transform="translate(427,713)" d="m0 0h8l4 4v6l-3 4-9 1z" fill="#FEF9ED"/>
<path transform="translate(484,719)" d="m0 0h2l5 12v4h-13l3-9z" fill="#FEF9ED"/>
<path transform="translate(326,719)" d="m0 0 3 3 4 10v3h-13l1-5z" fill="#FEF9ED"/>
<path transform="translate(733,720)" d="m0 0 2 3 3 9v3h-9l3-12z" fill="#FEF9ED"/>
</svg>
